<?xml version="1.0" encoding="UTF-8"?>
<svg id="_レイヤー_1" data-name="レイヤー 1" xmlns="http://www.w3.org/2000/svg" viewBox="0 0 320 100">
  <defs>
    <style>
      .cls-1 {
        opacity: .5;
      }

      .cls-1, .cls-2 {
        fill: #fff;
      }

      .cls-3 {
        opacity: .75;
      }

      .cls-4 {
        fill: #202020;
      }
    </style>
  </defs>
  <rect class="cls-4" width="320" height="100"/>
  <g>
    <rect class="cls-1" x="42.5" y="56" width="15" height="6"/>
    <g class="cls-3">
      <rect class="cls-2" x="51.5" y="47" width="6" height="6"/>
    </g>
    <rect class="cls-2" x="60.5" y="38" width="6" height="24"/>
    <rect class="cls-2" x="69.5" y="38" width="6" height="24"/>
    <g class="cls-3">
      <rect class="cls-2" x="78.5" y="47" width="15" height="6"/>
    </g>
    <rect class="cls-1" x="87.5" y="38" width="6" height="6"/>
  </g>
  <g>
    <path class="cls-2" d="M126.58,61.6v-23.21h4.48l10.67,16.01v-16.01h4.48v23.21h-4.48l-10.67-15.98v15.98h-4.48Z"/>
    <path class="cls-2" d="M150.75,61.6v-23.21h15.28v3.61h-10.81v6.07h9.81v3.48h-9.81v6.43h10.81v3.61h-15.28Z"/>
    <path class="cls-2" d="M170.07,61.6v-23.21h8.68c1.86,0,3.4.32,4.63.96,1.22.64,2.14,1.5,2.73,2.57.6,1.07.9,2.26.9,3.56s-.29,2.39-.88,3.46c-.59,1.07-1.49,1.93-2.72,2.59-1.23.65-2.8.98-4.72.98h-4.14v9.08h-4.48ZM174.55,49.27h3.91c1.37,0,2.37-.33,3.02-1,.64-.66.96-1.54.96-2.62s-.31-1.94-.94-2.57c-.63-.63-1.64-.94-3.03-.94h-3.91v7.13ZM182.11,61.6l-4.77-10.21h4.84l5.04,10.21h-5.11Z"/>
    <path class="cls-2" d="M201.4,62c-2.3,0-4.29-.5-5.97-1.51-1.68-1.01-2.96-2.41-3.86-4.21-.9-1.8-1.34-3.88-1.34-6.25s.45-4.45,1.34-6.27c.9-1.81,2.18-3.23,3.86-4.24,1.68-1.02,3.67-1.52,5.97-1.52,2.81,0,5.11.7,6.91,2.09,1.8,1.39,2.91,3.36,3.33,5.9h-4.9c-.29-1.24-.88-2.21-1.79-2.9s-2.1-1.04-3.58-1.04c-1.39,0-2.57.33-3.55.98-.97.65-1.72,1.57-2.24,2.75-.52,1.18-.78,2.6-.78,4.26s.26,3.05.78,4.24c.52,1.19,1.27,2.11,2.24,2.75.97.64,2.16.96,3.55.96,1.48,0,2.67-.33,3.58-.98.91-.65,1.5-1.56,1.79-2.73h4.9c-.42,2.41-1.53,4.3-3.33,5.67-1.8,1.37-4.1,2.06-6.91,2.06Z"/>
    <path class="cls-2" d="M226.13,62c-2.23,0-4.21-.51-5.92-1.52s-3.06-2.42-4.04-4.23c-.98-1.8-1.48-3.88-1.48-6.25s.49-4.45,1.48-6.25c.98-1.8,2.33-3.21,4.04-4.23,1.71-1.02,3.69-1.52,5.92-1.52s4.28.51,6.02,1.52c1.73,1.02,3.08,2.43,4.04,4.23s1.44,3.88,1.44,6.25-.48,4.45-1.44,6.25c-.96,1.8-2.31,3.21-4.04,4.23s-3.74,1.52-6.02,1.52ZM226.13,57.99c1.44,0,2.67-.33,3.7-.98,1.03-.65,1.82-1.57,2.38-2.77.56-1.19.85-2.61.85-4.24s-.28-3.08-.85-4.26c-.56-1.18-1.36-2.09-2.38-2.73s-2.26-.96-3.7-.96-2.57.32-3.6.96-1.83,1.55-2.4,2.73c-.57,1.18-.86,2.6-.86,4.26s.29,3.05.86,4.24,1.38,2.12,2.4,2.77c1.03.65,2.23.98,3.6.98Z"/>
    <path class="cls-2" d="M241.45,61.6v-23.21h4.48l10.67,16.01v-16.01h4.48v23.21h-4.48l-10.67-15.98v15.98h-4.48Z"/>
    <path class="cls-2" d="M265.62,61.6v-23.21h15.28v3.61h-10.81v6.07h9.81v3.48h-9.81v6.43h10.81v3.61h-15.28Z"/>
  </g>
</svg>