<?xml version="1.0" encoding="UTF-8"?>
<svg id="_レイヤー_1" data-name="レイヤー 1" xmlns="http://www.w3.org/2000/svg" viewBox="0 0 1280 640">
  <defs>
    <style>
      .cls-1 {
        fill: #404040;
      }

      .cls-2 {
        fill: none;
        stroke: #fff;
        stroke-miterlimit: 10;
        stroke-width: 16px;
      }

      .cls-3 {
        fill: #303030;
      }

      .cls-4 {
        fill: #fff;
      }

      .cls-5 {
        fill: #202020;
      }
    </style>
  </defs>
  <g>
    <rect class="cls-5" width="1280" height="640"/>
    <polygon class="cls-3" points="0 0 1280 428 1280 640 0 640 0 0"/>
    <polygon class="cls-1" points="640 640 1280 0 1280 640 640 640"/>
  </g>
  <polyline class="cls-2" points="463.71 341.6 207.71 256 207.71 384 335.71 384 463.71 256 463.71 384 397.05 384"/>
  <g>
    <path class="cls-4" d="M559.71,334.95v-77.91h17.78l24.63,39.42c1.25,2.02,2.53,4.22,3.82,6.59,1.29,2.37,2.61,5,3.95,7.9,1.34,2.89,2.67,6.15,4,9.78h-1.62c-.24-2.89-.46-5.98-.65-9.25-.19-3.28-.36-6.41-.5-9.41-.14-3-.21-5.54-.21-7.63v-37.39h16.31v77.91h-17.83l-22.38-35.76c-1.64-2.68-3.16-5.29-4.55-7.82-1.39-2.53-2.85-5.32-4.37-8.37-1.52-3.05-3.32-6.7-5.41-10.95h2.04c.21,3.76.42,7.37.63,10.82s.37,6.58.5,9.39c.12,2.81.18,5.1.18,6.88v35.82h-16.31Z"/>
    <path class="cls-4" d="M641.33,334.95v-77.91h52.13v13.23h-36.18v18.82h33.46v13.02h-33.46v19.61h36.29v13.23h-52.24Z"/>
    <path class="cls-4" d="M706.38,334.95v-77.91h30.38c5.93,0,10.96,1.05,15.11,3.14,4.15,2.09,7.31,5.04,9.49,8.84,2.18,3.8,3.27,8.26,3.27,13.39s-1.11,9.54-3.32,13.25c-2.21,3.71-5.42,6.55-9.62,8.52-4.2,1.97-9.3,2.95-15.29,2.95h-20.6v-12.92h18.04c3.28,0,5.96-.44,8.05-1.33s3.66-2.21,4.71-3.97c1.05-1.76,1.57-3.93,1.57-6.51s-.52-4.87-1.57-6.67c-1.05-1.8-2.62-3.16-4.73-4.1-2.11-.94-4.8-1.41-8.08-1.41h-11.45v64.73h-15.95ZM749.73,334.95l-18.98-35.45h17.31l19.35,35.45h-17.67Z"/>
    <path class="cls-4" d="M810.75,336c-6.9,0-13.08-1.57-18.54-4.71-5.46-3.14-9.76-7.69-12.92-13.65-3.16-5.96-4.73-13.16-4.73-21.59s1.59-15.69,4.76-21.67c3.17-5.98,7.49-10.54,12.97-13.67,5.47-3.14,11.63-4.71,18.46-4.71,4.43,0,8.55.62,12.37,1.86,3.82,1.24,7.21,3.04,10.17,5.41,2.96,2.37,5.39,5.27,7.27,8.71,1.88,3.43,3.12,7.35,3.71,11.74h-16.16c-.35-2.16-1.02-4.07-2.01-5.73-.99-1.66-2.23-3.07-3.71-4.24-1.48-1.17-3.18-2.06-5.1-2.67-1.92-.61-3.99-.92-6.22-.92-4.04,0-7.59,1.01-10.64,3.03-3.05,2.02-5.42,4.96-7.11,8.81-1.69,3.85-2.54,8.53-2.54,14.04s.85,10.34,2.56,14.17c1.71,3.83,4.08,6.73,7.11,8.68s6.55,2.93,10.56,2.93c2.23,0,4.3-.31,6.2-.92,1.9-.61,3.61-1.5,5.12-2.67s2.77-2.59,3.76-4.26,1.68-3.57,2.07-5.7h16.16c-.42,3.63-1.49,7.09-3.22,10.41s-4.02,6.27-6.88,8.89c-2.86,2.61-6.26,4.67-10.2,6.17-3.94,1.5-8.37,2.25-13.28,2.25Z"/>
    <path class="cls-4" d="M890.12,336c-6.87,0-13.05-1.57-18.54-4.71s-9.83-7.69-13.02-13.65c-3.19-5.96-4.78-13.16-4.78-21.59s1.59-15.69,4.78-21.67c3.19-5.98,7.53-10.54,13.02-13.67s11.67-4.71,18.54-4.71,13.09,1.57,18.56,4.71c5.47,3.14,9.8,7.69,12.99,13.67,3.19,5.98,4.78,13.2,4.78,21.67s-1.59,15.63-4.78,21.59c-3.19,5.96-7.52,10.51-12.99,13.65-5.47,3.14-11.66,4.71-18.56,4.71ZM890.12,321.83c4.04,0,7.57-.98,10.59-2.95,3.01-1.97,5.36-4.88,7.03-8.73s2.51-8.55,2.51-14.09-.84-10.34-2.51-14.2c-1.67-3.85-4.02-6.76-7.03-8.73-3.02-1.97-6.54-2.95-10.59-2.95s-7.53.99-10.56,2.98-5.39,4.91-7.06,8.76c-1.67,3.85-2.51,8.57-2.51,14.14s.84,10.23,2.51,14.07,4.03,6.75,7.06,8.73,6.55,2.98,10.56,2.98Z"/>
    <path class="cls-4" d="M938.43,334.95v-77.91h17.78l24.63,39.42c1.25,2.02,2.53,4.22,3.82,6.59,1.29,2.37,2.61,5,3.95,7.9,1.34,2.89,2.67,6.15,4,9.78h-1.62c-.24-2.89-.46-5.98-.65-9.25-.19-3.28-.36-6.41-.5-9.41-.14-3-.21-5.54-.21-7.63v-37.39h16.31v77.91h-17.83l-22.38-35.76c-1.64-2.68-3.16-5.29-4.55-7.82-1.39-2.53-2.85-5.32-4.37-8.37-1.52-3.05-3.32-6.7-5.41-10.95h2.04c.21,3.76.42,7.37.63,10.82.21,3.45.37,6.58.5,9.39.12,2.81.18,5.1.18,6.88v35.82h-16.31Z"/>
    <path class="cls-4" d="M1020.05,334.95v-77.91h52.13v13.23h-36.18v18.82h33.46v13.02h-33.46v19.61h36.29v13.23h-52.24Z"/>
  </g>
  <g>
    <path class="cls-4" d="M561.94,361.36v17.46h-2.23v-17.46h2.23Z"/>
    <path class="cls-4" d="M572.65,383.72v-18h2.04v2.1h.23c.15-.23.36-.53.62-.88s.65-.67,1.15-.96,1.18-.42,2.03-.42c1.09,0,2.06.27,2.89.82s1.48,1.33,1.96,2.34.71,2.21.71,3.59-.23,2.59-.7,3.61-1.12,1.8-1.95,2.36-1.79.83-2.89.83c-.83,0-1.5-.14-2-.43s-.9-.61-1.17-.97-.48-.67-.63-.91h-.16v6.93h-2.11ZM578.42,377.21c.82,0,1.51-.22,2.06-.66s.96-1.04,1.24-1.78.42-1.58.42-2.49-.14-1.72-.41-2.46-.69-1.31-1.24-1.74-1.24-.64-2.07-.64-1.48.2-2.03.61-.96.97-1.24,1.69-.42,1.57-.42,2.54.14,1.82.42,2.57.7,1.32,1.25,1.74,1.22.63,2.01.63Z"/>
    <path class="cls-4" d="M587.34,378.82v-13.1h2.04v2.02h.14c.24-.66.67-1.2,1.29-1.6s1.32-.6,2.1-.6c.16,0,.34,0,.56.01s.38.02.51.02v2.12c-.06-.02-.22-.04-.47-.07s-.52-.05-.8-.05c-.62,0-1.19.13-1.68.39s-.88.62-1.17,1.08-.42.98-.42,1.58v8.2h-2.11Z"/>
    <path class="cls-4" d="M601.31,379.1c-1.19,0-2.23-.28-3.12-.84s-1.59-1.35-2.09-2.37-.75-2.2-.75-3.54.25-2.56.75-3.58,1.2-1.81,2.09-2.37,1.94-.84,3.12-.84,2.24.28,3.14.84,1.6,1.35,2.1,2.37.75,2.21.75,3.58-.25,2.52-.75,3.54-1.2,1.8-2.1,2.37-1.95.84-3.14.84ZM601.31,377.21c.88,0,1.61-.23,2.18-.68s.99-1.05,1.27-1.79.41-1.54.41-2.4-.14-1.67-.41-2.42-.7-1.35-1.27-1.8-1.3-.69-2.18-.69-1.59.23-2.16.69-.98,1.06-1.25,1.8-.41,1.55-.41,2.43.14,1.66.41,2.4.69,1.33,1.25,1.79,1.28.68,2.16.68Z"/>
    <path class="cls-4" d="M615.68,384c-.97,0-1.81-.12-2.51-.37s-1.29-.57-1.76-.98-.84-.85-1.11-1.32l1.71-1.1c.19.25.42.53.7.83s.65.56,1.12.78,1.09.32,1.86.32c1.05,0,1.91-.25,2.58-.75s1.01-1.29,1.01-2.37v-2.62h-.2c-.15.25-.36.55-.63.89s-.66.65-1.16.91-1.18.39-2.02.39c-1.05,0-1.99-.25-2.82-.74s-1.5-1.22-1.98-2.17-.73-2.11-.73-3.48.24-2.53.71-3.52,1.13-1.77,1.97-2.31,1.8-.82,2.89-.82c.84,0,1.52.14,2.02.42s.89.6,1.17.96.48.66.63.89h.2v-2.1h2.05v13.44c0,1.12-.25,2.04-.76,2.76s-1.19,1.24-2.06,1.58-1.83.5-2.89.5ZM615.62,376.73c.8,0,1.47-.18,2.02-.54s.96-.89,1.24-1.57.42-1.5.42-2.46-.14-1.75-.42-2.46-.69-1.26-1.24-1.66-1.22-.6-2.03-.6-1.52.21-2.07.64-.97.99-1.25,1.71-.42,1.5-.42,2.38.14,1.69.42,2.38.7,1.22,1.25,1.61,1.24.58,2.06.58Z"/>
    <path class="cls-4" d="M625.09,378.82v-13.1h2.04v2.02h.14c.24-.66.67-1.2,1.29-1.6s1.32-.6,2.1-.6c.16,0,.34,0,.56.01s.38.02.51.02v2.12c-.06-.02-.22-.04-.47-.07s-.52-.05-.8-.05c-.62,0-1.19.13-1.68.39s-.88.62-1.17,1.08-.42.98-.42,1.58v8.2h-2.11Z"/>
    <path class="cls-4" d="M637.79,379.12c-.83,0-1.58-.16-2.26-.47s-1.21-.77-1.61-1.37-.6-1.33-.6-2.19c0-.75.15-1.36.45-1.83s.69-.84,1.19-1.11,1.04-.47,1.65-.6,1.21-.24,1.82-.32c.78-.1,1.42-.18,1.91-.23s.86-.15,1.1-.28.36-.36.36-.68v-.07c0-.55-.1-1.01-.3-1.39s-.51-.67-.91-.87-.91-.3-1.52-.3-1.16.1-1.61.29-.81.44-1.08.73-.49.59-.63.9l-2.03-.67c.34-.8.79-1.42,1.36-1.87s1.2-.77,1.89-.96,1.37-.28,2.04-.28c.44,0,.94.05,1.49.16s1.1.31,1.62.63.95.78,1.29,1.39.51,1.43.51,2.46v8.64h-2.07v-1.78h-.14c-.15.3-.39.62-.71.94s-.75.6-1.28.81-1.16.33-1.9.33ZM638.16,377.26c.78,0,1.44-.15,1.98-.46s.95-.7,1.23-1.19.42-1,.42-1.53v-1.82c-.09.1-.27.19-.56.28s-.62.15-.99.22-.73.12-1.08.16-.62.08-.83.1c-.51.06-.98.17-1.42.32s-.79.38-1.06.67-.4.69-.4,1.19c0,.45.12.83.35,1.14s.55.54.96.69.87.23,1.39.23Z"/>
    <path class="cls-4" d="M647.6,378.82v-13.1h2.05v2.93s-.15,0-.15,0c.18-.71.46-1.3.85-1.76s.84-.81,1.36-1.05,1.06-.35,1.62-.35c.95,0,1.72.29,2.31.88s.97,1.36,1.14,2.31h-.28c.16-.66.44-1.22.86-1.7s.92-.84,1.51-1.1,1.23-.39,1.93-.39c.76,0,1.45.16,2.07.49s1.12.82,1.49,1.49.56,1.5.56,2.52v8.84h-2.11v-8.78c0-.95-.27-1.62-.8-2.03s-1.15-.61-1.85-.61c-.59,0-1.09.12-1.52.37s-.75.58-.98,1.01-.35.92-.35,1.48v8.55h-2.11v-8.99c0-.73-.24-1.31-.73-1.76s-1.1-.67-1.84-.67c-.51,0-.99.12-1.44.36s-.81.59-1.08,1.06-.41,1.05-.41,1.75v8.25h-2.11Z"/>
    <path class="cls-4" d="M668.63,378.82v-13.1h2.05v2.93s-.15,0-.15,0c.18-.71.46-1.3.85-1.76s.84-.81,1.36-1.05,1.06-.35,1.62-.35c.95,0,1.72.29,2.31.88s.97,1.36,1.14,2.31h-.28c.16-.66.44-1.22.86-1.7s.92-.84,1.51-1.1,1.23-.39,1.93-.39c.76,0,1.45.16,2.07.49s1.12.82,1.49,1.49.56,1.5.56,2.52v8.84h-2.11v-8.78c0-.95-.27-1.62-.8-2.03s-1.15-.61-1.85-.61c-.59,0-1.09.12-1.52.37s-.75.58-.98,1.01-.35.92-.35,1.48v8.55h-2.11v-8.99c0-.73-.24-1.31-.73-1.76s-1.1-.67-1.84-.67c-.51,0-.99.12-1.44.36s-.81.59-1.08,1.06-.41,1.05-.41,1.75v8.25h-2.11Z"/>
    <path class="cls-4" d="M690.72,363.57c-.4,0-.74-.14-1.03-.41s-.43-.6-.43-.98.14-.72.43-.99.63-.4,1.03-.4.75.13,1.04.4.43.6.43.99-.14.71-.43.98-.64.41-1.04.41ZM689.65,378.82v-13.1h2.11v13.1h-2.11Z"/>
    <path class="cls-4" d="M697.57,370.97v7.85h-2.11v-13.1h2.03v3.18s-.28,0-.28,0c.4-1.21.97-2.07,1.71-2.58s1.6-.76,2.6-.76c.88,0,1.66.18,2.32.54s1.18.91,1.55,1.64.56,1.65.56,2.76v8.32h-2.11v-8.14c0-1.01-.26-1.8-.79-2.37s-1.25-.86-2.16-.86c-.62,0-1.19.14-1.69.41s-.89.67-1.18,1.2-.43,1.16-.43,1.91Z"/>
    <path class="cls-4" d="M714.95,384c-.97,0-1.81-.12-2.51-.37s-1.29-.57-1.76-.98-.84-.85-1.11-1.32l1.71-1.1c.19.25.42.53.7.83s.65.56,1.12.78,1.09.32,1.86.32c1.05,0,1.91-.25,2.58-.75s1.01-1.29,1.01-2.37v-2.62h-.2c-.15.25-.36.55-.63.89s-.66.65-1.16.91-1.18.39-2.02.39c-1.05,0-1.99-.25-2.82-.74s-1.5-1.22-1.98-2.17-.73-2.11-.73-3.48.24-2.53.71-3.52,1.13-1.77,1.97-2.31,1.8-.82,2.89-.82c.84,0,1.52.14,2.02.42s.89.6,1.17.96.48.66.63.89h.2v-2.1h2.05v13.44c0,1.12-.25,2.04-.76,2.76s-1.19,1.24-2.06,1.58-1.83.5-2.89.5ZM714.89,376.73c.8,0,1.47-.18,2.02-.54s.96-.89,1.24-1.57.42-1.5.42-2.46-.14-1.75-.42-2.46-.69-1.26-1.24-1.66-1.22-.6-2.03-.6-1.52.21-2.07.64-.97.99-1.25,1.71-.42,1.5-.42,2.38.14,1.69.42,2.38.7,1.22,1.25,1.61,1.24.58,2.06.58Z"/>
    <path class="cls-4" d="M736.62,379.1c-1.27,0-2.36-.28-3.28-.84s-1.62-1.35-2.12-2.36-.74-2.18-.74-3.53.24-2.53.73-3.55,1.17-1.82,2.06-2.4,1.92-.87,3.11-.87c.7,0,1.38.12,2.06.35s1.29.6,1.84,1.11.99,1.19,1.32,2.02.49,1.86.49,3.07v.88h-10.17v-1.78h9.04l-.98.66c0-.86-.13-1.62-.4-2.29s-.67-1.19-1.2-1.57-1.19-.57-1.98-.57-1.46.19-2.03.58-.99.89-1.29,1.51-.45,1.29-.45,2v1.18c0,.97.17,1.79.5,2.47s.81,1.19,1.41,1.54,1.31.52,2.1.52c.52,0,.98-.07,1.41-.22s.79-.37,1.09-.67.54-.67.7-1.12l2.04.56c-.2.66-.55,1.23-1.03,1.73s-1.08.89-1.8,1.17-1.52.42-2.42.42Z"/>
    <path class="cls-4" d="M748.42,378.82l-5-13.1h2.31l2.79,7.77c.3.8.55,1.61.76,2.41s.42,1.58.65,2.33h-.77c.23-.75.44-1.53.65-2.33s.46-1.6.74-2.41l2.79-7.77h2.31l-5,13.1h-2.21Z"/>
    <path class="cls-4" d="M763.16,379.1c-1.27,0-2.36-.28-3.28-.84s-1.62-1.35-2.12-2.36-.74-2.18-.74-3.53.24-2.53.73-3.55,1.17-1.82,2.06-2.4,1.92-.87,3.11-.87c.7,0,1.38.12,2.06.35s1.29.6,1.84,1.11.99,1.19,1.32,2.02.49,1.86.49,3.07v.88h-10.17v-1.78h9.04l-.98.66c0-.86-.13-1.62-.4-2.29s-.67-1.19-1.2-1.57-1.19-.57-1.98-.57-1.46.19-2.03.58-.99.89-1.29,1.51-.45,1.29-.45,2v1.18c0,.97.17,1.79.5,2.47s.81,1.19,1.41,1.54,1.31.52,2.1.52c.52,0,.98-.07,1.41-.22s.79-.37,1.09-.67.54-.67.7-1.12l2.04.56c-.2.66-.55,1.23-1.03,1.73s-1.08.89-1.8,1.17-1.52.42-2.42.42Z"/>
    <path class="cls-4" d="M771.65,378.82v-13.1h2.04v2.02h.14c.24-.66.67-1.2,1.29-1.6s1.32-.6,2.1-.6c.16,0,.34,0,.56.01s.38.02.51.02v2.12c-.06-.02-.22-.04-.47-.07s-.52-.05-.8-.05c-.62,0-1.19.13-1.68.39s-.88.62-1.17,1.08-.42.98-.42,1.58v8.2h-2.11Z"/>
    <path class="cls-4" d="M780.84,383.57l.54-1.83.22.06c.43.11.82.14,1.17.09s.67-.22.95-.52.53-.76.74-1.38l.38-1.09-5-13.17h2.31l2.79,7.77c.3.81.55,1.62.75,2.41s.42,1.57.64,2.32h-.77c.23-.75.44-1.53.65-2.33s.46-1.6.74-2.41l2.81-7.77h2.3l-5.75,15.06c-.27.7-.58,1.27-.96,1.72s-.8.78-1.29,1-1.05.32-1.66.32c-.38,0-.7-.03-.97-.08s-.46-.11-.57-.16Z"/>
    <path class="cls-4" d="M798.99,379.1c-1.09,0-2.05-.28-2.88-.83s-1.49-1.34-1.96-2.36-.7-2.22-.7-3.61.24-2.58.71-3.59,1.13-1.79,1.96-2.34,1.8-.82,2.88-.82c.85,0,1.53.14,2.03.42s.88.6,1.15.96.47.65.62.88h.16v-6.46h2.11v17.46h-2.04v-2.03h-.23c-.14.24-.35.54-.63.91s-.67.69-1.17.97-1.17.43-2.01.43ZM799.3,377.21c.8,0,1.47-.21,2.02-.63s.96-1,1.24-1.74.42-1.6.42-2.57-.14-1.81-.42-2.54-.69-1.29-1.24-1.69-1.22-.61-2.03-.61-1.52.21-2.07.64-.96,1.01-1.24,1.74-.41,1.55-.41,2.46.14,1.74.42,2.49.69,1.34,1.25,1.78,1.24.66,2.05.66Z"/>
    <path class="cls-4" d="M812.44,379.12c-.83,0-1.58-.16-2.26-.47s-1.21-.77-1.61-1.37-.6-1.33-.6-2.19c0-.75.15-1.36.45-1.83s.69-.84,1.19-1.11,1.04-.47,1.65-.6,1.21-.24,1.82-.32c.78-.1,1.42-.18,1.91-.23s.86-.15,1.1-.28.36-.36.36-.68v-.07c0-.55-.1-1.01-.3-1.39s-.51-.67-.91-.87-.91-.3-1.52-.3-1.16.1-1.61.29-.81.44-1.08.73-.49.59-.63.9l-2.03-.67c.34-.8.79-1.42,1.36-1.87s1.2-.77,1.89-.96,1.37-.28,2.04-.28c.44,0,.94.05,1.49.16s1.1.31,1.62.63.95.78,1.29,1.39.51,1.43.51,2.46v8.64h-2.07v-1.78h-.14c-.15.3-.39.62-.71.94s-.75.6-1.28.81-1.16.33-1.9.33ZM812.8,377.26c.78,0,1.44-.15,1.98-.46s.95-.7,1.23-1.19.42-1,.42-1.53v-1.82c-.09.1-.27.19-.56.28s-.62.15-.99.22-.73.12-1.08.16-.62.08-.83.1c-.51.06-.98.17-1.42.32s-.79.38-1.06.67-.4.69-.4,1.19c0,.45.12.83.35,1.14s.55.54.96.69.87.23,1.39.23Z"/>
    <path class="cls-4" d="M821.68,383.57l.54-1.83.22.06c.43.11.82.14,1.17.09s.67-.22.95-.52.53-.76.74-1.38l.38-1.09-5-13.17h2.31l2.79,7.77c.3.81.55,1.62.75,2.41s.42,1.57.64,2.32h-.77c.23-.75.44-1.53.65-2.33s.46-1.6.74-2.41l2.81-7.77h2.3l-5.75,15.06c-.27.7-.58,1.27-.96,1.72s-.8.78-1.29,1-1.05.32-1.66.32c-.38,0-.7-.03-.97-.08s-.46-.11-.57-.16Z"/>
    <path class="cls-4" d="M848.23,365.72v1.8h-7.71v-1.8h7.71ZM843.09,378.82v-14.85c0-.76.18-1.39.53-1.9s.82-.89,1.39-1.15,1.17-.39,1.8-.39c.5,0,.91.04,1.24.12s.57.16.73.23l-.59,1.8c-.11-.04-.25-.08-.43-.13s-.41-.07-.71-.07c-.65,0-1.12.17-1.42.5s-.45.81-.45,1.45v14.38h-2.11Z"/>
    <path class="cls-4" d="M855.65,379.1c-1.19,0-2.23-.28-3.12-.84s-1.59-1.35-2.09-2.37-.75-2.2-.75-3.54.25-2.56.75-3.58,1.2-1.81,2.09-2.37,1.94-.84,3.12-.84,2.24.28,3.14.84,1.6,1.35,2.1,2.37.75,2.21.75,3.58-.25,2.52-.75,3.54-1.2,1.8-2.1,2.37-1.95.84-3.14.84ZM855.65,377.21c.88,0,1.61-.23,2.18-.68s.99-1.05,1.27-1.79.41-1.54.41-2.4-.14-1.67-.41-2.42-.7-1.35-1.27-1.8-1.3-.69-2.18-.69-1.59.23-2.16.69-.98,1.06-1.25,1.8-.41,1.55-.41,2.43.14,1.66.41,2.4.69,1.33,1.25,1.79,1.28.68,2.16.68Z"/>
    <path class="cls-4" d="M864.7,378.82v-13.1h2.04v2.02h.14c.24-.66.67-1.2,1.29-1.6s1.32-.6,2.1-.6c.16,0,.34,0,.56.01s.38.02.51.02v2.12c-.06-.02-.22-.04-.47-.07s-.52-.05-.8-.05c-.62,0-1.19.13-1.68.39s-.88.62-1.17,1.08-.42.98-.42,1.58v8.2h-2.11Z"/>
    <path class="cls-4" d="M880.49,378.82v-13.1h2.05v2.93s-.15,0-.15,0c.18-.71.46-1.3.85-1.76s.84-.81,1.36-1.05,1.06-.35,1.62-.35c.95,0,1.72.29,2.31.88s.97,1.36,1.14,2.31h-.28c.16-.66.44-1.22.86-1.7s.92-.84,1.51-1.1,1.23-.39,1.93-.39c.76,0,1.45.16,2.07.49s1.12.82,1.49,1.49.56,1.5.56,2.52v8.84h-2.11v-8.78c0-.95-.27-1.62-.8-2.03s-1.15-.61-1.85-.61c-.59,0-1.09.12-1.52.37s-.75.58-.98,1.01-.35.92-.35,1.48v8.55h-2.11v-8.99c0-.73-.24-1.31-.73-1.76s-1.1-.67-1.84-.67c-.51,0-.99.12-1.44.36s-.81.59-1.08,1.06-.41,1.05-.41,1.75v8.25h-2.11Z"/>
    <path class="cls-4" d="M900.95,383.57l.54-1.83.22.06c.43.11.82.14,1.17.09s.67-.22.95-.52.53-.76.74-1.38l.38-1.09-5-13.17h2.31l2.79,7.77c.3.81.55,1.62.75,2.41s.42,1.57.64,2.32h-.77c.23-.75.44-1.53.65-2.33s.46-1.6.74-2.41l2.81-7.77h2.3l-5.75,15.06c-.27.7-.58,1.27-.96,1.72s-.8.78-1.29,1-1.05.32-1.66.32c-.38,0-.7-.03-.97-.08s-.46-.11-.57-.16Z"/>
    <path class="cls-4" d="M926.73,379.1c-1.19,0-2.23-.28-3.12-.84s-1.59-1.35-2.09-2.37-.75-2.2-.75-3.54.25-2.56.75-3.58,1.2-1.81,2.09-2.37,1.94-.84,3.12-.84c.63,0,1.23.08,1.79.25s1.08.4,1.54.71.87.69,1.2,1.14.59.96.77,1.53l-2.03.57c-.09-.34-.24-.64-.43-.93s-.43-.53-.71-.73-.6-.37-.96-.48-.75-.17-1.18-.17c-.88,0-1.59.23-2.16.69s-.98,1.06-1.25,1.8-.41,1.55-.41,2.43.14,1.66.41,2.4.69,1.33,1.25,1.79,1.28.68,2.16.68c.44,0,.84-.06,1.21-.18s.69-.28.98-.5.53-.47.72-.77.34-.62.43-.97l2.02.57c-.17.59-.43,1.11-.77,1.56s-.74.85-1.21,1.17-.99.57-1.56.74-1.18.25-1.82.25Z"/>
    <path class="cls-4" d="M939.55,378.98c-.88,0-1.66-.18-2.33-.54s-1.19-.91-1.56-1.65-.56-1.65-.56-2.75v-8.32h2.11v8.14c0,1.01.27,1.8.8,2.37s1.25.86,2.17.86c.62,0,1.19-.14,1.68-.41s.89-.67,1.18-1.2.43-1.16.43-1.9v-7.85h2.12v13.1h-2.04v-3.18h.28c-.41,1.23-.98,2.09-1.73,2.59s-1.6.75-2.56.75Z"/>
    <path class="cls-4" d="M949.3,378.82v-13.1h2.04v2.02h.14c.24-.66.67-1.2,1.29-1.6s1.32-.6,2.1-.6c.16,0,.34,0,.56.01s.38.02.51.02v2.12c-.06-.02-.22-.04-.47-.07s-.52-.05-.8-.05c-.62,0-1.19.13-1.68.39s-.88.62-1.17,1.08-.42.98-.42,1.58v8.2h-2.11Z"/>
    <path class="cls-4" d="M959.64,363.57c-.4,0-.74-.14-1.03-.41s-.43-.6-.43-.98.14-.72.43-.99.63-.4,1.03-.4.75.13,1.04.4.43.6.43.99-.14.71-.43.98-.64.41-1.04.41ZM958.57,378.82v-13.1h2.11v13.1h-2.11Z"/>
    <path class="cls-4" d="M969.72,379.1c-1.19,0-2.23-.28-3.12-.84s-1.59-1.35-2.09-2.37-.75-2.2-.75-3.54.25-2.56.75-3.58,1.2-1.81,2.09-2.37,1.94-.84,3.12-.84,2.24.28,3.14.84,1.6,1.35,2.1,2.37.75,2.21.75,3.58-.25,2.52-.75,3.54-1.2,1.8-2.1,2.37-1.95.84-3.14.84ZM969.72,377.21c.88,0,1.61-.23,2.18-.68s.99-1.05,1.27-1.79.41-1.54.41-2.4-.14-1.67-.41-2.42-.7-1.35-1.27-1.8-1.3-.69-2.18-.69-1.59.23-2.16.69-.98,1.06-1.25,1.8-.41,1.55-.41,2.43.14,1.66.41,2.4.69,1.33,1.25,1.79,1.28.68,2.16.68Z"/>
    <path class="cls-4" d="M983.23,379.1c-.9,0-1.7-.13-2.4-.39s-1.28-.65-1.73-1.17-.76-1.15-.91-1.9l2-.48c.19.72.54,1.25,1.06,1.58s1.17.5,1.95.5c.91,0,1.64-.2,2.19-.59s.81-.86.81-1.39c0-.45-.16-.83-.47-1.13s-.8-.53-1.45-.67l-2.18-.52c-1.19-.28-2.07-.72-2.65-1.31s-.87-1.35-.87-2.27c0-.75.21-1.41.63-1.99s1-1.02,1.73-1.35,1.56-.49,2.49-.49,1.66.13,2.29.4,1.14.64,1.54,1.11.69,1.02.88,1.63l-1.91.49c-.18-.47-.48-.89-.9-1.28s-1.05-.57-1.89-.57c-.78,0-1.43.18-1.95.54s-.78.81-.78,1.36c0,.48.18.87.53,1.17s.91.53,1.68.71l1.98.47c1.19.28,2.07.72,2.64,1.31s.86,1.33.86,2.23c0,.77-.22,1.45-.65,2.04s-1.04,1.07-1.82,1.41-1.68.52-2.7.52Z"/>
    <path class="cls-4" d="M992.51,363.57c-.4,0-.74-.14-1.03-.41s-.43-.6-.43-.98.14-.72.43-.99.63-.4,1.03-.4.75.13,1.04.4.43.6.43.99-.14.71-.43.98-.64.41-1.04.41ZM991.44,378.82v-13.1h2.11v13.1h-2.11Z"/>
    <path class="cls-4" d="M1002.41,365.72v1.8h-6.77v-1.8h6.77ZM997.61,362.6h2.11v12.82c0,.59.12,1.01.36,1.28s.63.4,1.19.4c.13,0,.3-.02.51-.05s.4-.06.57-.09l.43,1.78c-.22.08-.47.14-.74.18s-.55.06-.83.06c-1.13,0-2.02-.3-2.65-.9s-.95-1.43-.95-2.5v-12.98Z"/>
    <path class="cls-4" d="M1005.36,383.57l.54-1.83.22.06c.43.11.82.14,1.17.09s.67-.22.95-.52.53-.76.74-1.38l.38-1.09-5-13.17h2.31l2.79,7.77c.3.81.55,1.62.75,2.41s.42,1.57.64,2.32h-.77c.23-.75.44-1.53.65-2.33s.46-1.6.74-2.41l2.81-7.77h2.3l-5.75,15.06c-.27.7-.58,1.27-.96,1.72s-.8.78-1.29,1-1.05.32-1.66.32c-.38,0-.7-.03-.97-.08s-.46-.11-.57-.16Z"/>
    <path class="cls-4" d="M1019.61,378.97c-.44,0-.81-.15-1.12-.46s-.46-.68-.46-1.12.15-.81.46-1.12.68-.46,1.12-.46.81.15,1.12.46.46.68.46,1.12-.15.81-.46,1.12-.68.46-1.12.46Z"/>
  </g>
</svg>